<?xml version="1.0" standalone="no"?>
<!DOCTYPE svg PUBLIC "-//W3C//DTD SVG 20010904//EN"
 "http://www.w3.org/TR/2001/REC-SVG-20010904/DTD/svg10.dtd">
<svg version="1.0" xmlns="http://www.w3.org/2000/svg"
 width="200.000000pt" height="200.000000pt" viewBox="0 0 200.000000 200.000000"
 preserveAspectRatio="xMidYMid meet">

<g transform="translate(0.000000,200.000000) scale(0.100000,-0.100000)"
fill="#000000" stroke="none">
<path d="M0 1422 l0 -579 193 -7 c251 -9 625 -11 633 -4 3 3 -8 21 -24 39 -16
19 -27 39 -25 46 2 6 -1 14 -6 18 -6 3 -11 23 -11 45 0 33 -3 37 -20 33 -11
-3 -20 -12 -20 -19 0 -25 -17 -15 -31 19 -23 54 -17 236 14 437 7 48 17 67 49
90 28 20 46 24 187 31 86 4 176 12 201 18 25 6 53 10 62 11 28 0 77 -49 90
-91 8 -27 14 -36 20 -27 5 8 7 -21 6 -67 -3 -71 -1 -81 17 -90 15 -8 20 -20
19 -50 -2 -66 -30 -158 -53 -174 -18 -11 -21 -23 -21 -80 1 -86 14 -112 77
-155 52 -36 53 -36 195 -43 147 -7 171 -7 346 -5 l102 2 0 590 0 590 -1000 0
-1000 0 0 -578z m1123 342 c20 -9 37 -20 37 -24 0 -5 11 -11 24 -14 14 -3 27
-14 30 -24 4 -11 18 -25 31 -32 14 -7 25 -19 25 -26 0 -7 3 -21 7 -31 3 -10
-13 2 -36 27 -26 29 -39 38 -36 25 5 -17 4 -17 -6 2 -12 22 -49 38 -49 21 0
-6 -7 -5 -15 2 -9 7 -14 19 -11 27 3 8 1 11 -4 8 -6 -3 -21 6 -34 22 -21 24
-26 25 -31 12 -5 -14 -13 -15 -43 -8 -20 4 -63 5 -94 2 -38 -4 -58 -2 -58 5 0
12 55 26 68 18 5 -3 29 -2 53 3 56 10 94 6 142 -15z m-273 -23 c0 -5 -16 -15
-35 -22 -19 -7 -35 -19 -35 -27 0 -7 -13 -18 -30 -23 -27 -10 -34 -21 -33 -56
1 -7 -3 -10 -8 -7 -23 14 14 99 38 89 8 -2 22 4 33 15 11 11 27 20 35 20 8 0
15 5 15 10 0 6 5 10 10 10 6 0 10 -4 10 -9z"/>
<path d="M1301 1404 c0 -11 3 -14 6 -6 3 7 2 16 -1 19 -3 4 -6 -2 -5 -13z"/>
<path d="M736 1387 c-17 -13 -15 -15 28 -26 54 -13 65 -41 15 -41 -31 0 -69
-15 -69 -28 0 -4 30 -5 66 -2 49 4 70 11 80 25 16 21 19 46 5 43 -5 -2 -16 4
-23 13 -18 23 -79 32 -102 16z"/>
<path d="M906 1375 c-22 -34 -20 -52 10 -72 33 -21 174 -28 146 -7 -9 8 -28
14 -42 14 -29 0 -73 27 -65 39 2 5 23 11 46 15 56 9 37 31 -29 34 -43 2 -52
-1 -66 -23z"/>
<path d="M1320 1292 c0 -5 7 -17 15 -28 14 -18 14 -18 15 9 0 17 -5 27 -15 27
-8 0 -15 -4 -15 -8z"/>
<path d="M755 1270 c-3 -6 5 -10 19 -10 14 0 28 5 31 10 3 6 -5 10 -19 10 -14
0 -28 -4 -31 -10z"/>
<path d="M975 1260 c-4 -6 7 -10 27 -10 25 0 29 3 18 10 -19 13 -37 13 -45 0z"/>
<path d="M1274 1236 c-4 -11 -2 -21 6 -26 7 -4 9 -13 6 -19 -4 -6 -3 -11 3
-11 18 0 24 41 7 58 -14 14 -16 14 -22 -2z"/>
<path d="M742 1147 c-32 -33 -41 -57 -22 -57 5 0 7 -7 4 -15 -4 -9 0 -15 9
-15 8 0 18 -7 21 -15 4 -13 10 -14 26 -5 11 6 20 8 20 4 0 -3 6 -2 13 3 12 10
135 1 179 -13 16 -5 20 -3 15 10 -8 20 12 33 24 15 4 -7 11 -10 15 -6 4 3 1
13 -6 22 -7 8 -9 15 -6 15 4 0 -14 20 -41 44 -35 33 -49 41 -51 29 -3 -11 -10
-13 -25 -7 -12 4 -45 8 -74 10 -28 1 -55 4 -60 7 -6 4 -24 -8 -41 -26z m86
-27 c23 -22 42 -26 42 -10 0 6 9 10 21 10 11 0 29 5 40 11 36 19 65 -24 37
-55 -9 -9 -21 -11 -43 -5 -16 5 -52 10 -80 10 -83 2 -104 16 -73 47 17 17 31
15 56 -8z"/>
<path d="M810 1020 c0 -10 7 -21 16 -24 8 -3 13 -9 10 -14 -2 -4 11 -6 30 -4
19 2 35 8 36 13 0 5 1 15 2 22 1 6 5 15 9 18 5 3 -17 6 -47 6 -47 0 -56 -3
-56 -17z"/>
<path d="M1006 992 c-2 -4 2 -16 10 -27 10 -14 17 -16 25 -8 9 9 8 16 -4 27
-17 18 -24 19 -31 8z"/>
<path d="M813 923 c-45 -9 -19 -34 54 -53 l38 -9 -37 2 c-20 2 -35 -1 -32 -5
9 -14 70 -19 99 -8 27 11 28 13 11 19 -14 5 -16 10 -8 15 42 26 -48 54 -125
39z"/>
<path d="M1000 815 c-14 -8 -42 -14 -62 -15 -24 0 -38 -5 -38 -12 0 -22 14
-36 40 -40 l25 -3 -30 -17 c-16 -10 -24 -17 -17 -18 16 0 142 57 142 65 0 3
-6 3 -12 0 -7 -4 -3 3 10 14 42 36 -4 57 -58 26z"/>
</g>
</svg>
